<?xml version="1.0" encoding="UTF-8"?>
<!DOCTYPE svg PUBLIC "-//W3C//DTD SVG 1.1//EN" "http://www.w3.org/Graphics/SVG/1.1/DTD/svg11.dtd">
<svg xmlns="http://www.w3.org/2000/svg" version="1.1" width="512px" height="512px" style="shape-rendering:geometricPrecision; text-rendering:geometricPrecision; image-rendering:optimizeQuality; fill-rule:evenodd; clip-rule:evenodd" xmlns:xlink="http://www.w3.org/1999/xlink">
<g><path style="opacity:0.996" fill="#e34fbf" d="M 245.5,46.5 C 245.369,47.2389 245.536,47.9056 246,48.5C 273.062,75.395 299.895,102.395 326.5,129.5C 326.351,130.552 326.517,131.552 327,132.5C 328.129,130.859 329.629,129.859 331.5,129.5C 364.5,163.167 397.833,196.5 431.5,229.5C 428.075,235.02 423.742,239.687 418.5,243.5C 354.25,180.751 290.417,117.417 227,53.5C 226.536,52.9056 226.369,52.2389 226.5,51.5C 232.549,48.8183 238.882,47.1516 245.5,46.5 Z"/></g>
<g><path style="opacity:0.991" fill="#ea53c0" d="M 245.5,46.5 C 283.607,44.4539 309.441,61.1205 323,96.5C 325.74,107.324 326.906,118.324 326.5,129.5C 299.895,102.395 273.062,75.395 246,48.5C 245.536,47.9056 245.369,47.2389 245.5,46.5 Z"/></g>
<g><path style="opacity:0.993" fill="#dd4bbd" d="M 226.5,51.5 C 226.369,52.2389 226.536,52.9056 227,53.5C 290.417,117.417 354.25,180.751 418.5,243.5C 413.876,247.82 408.543,251.154 402.5,253.5C 388.833,239.5 375.167,225.5 361.5,211.5C 367.338,198.17 363.171,189.836 349,186.5C 345.04,186.762 341.54,188.096 338.5,190.5C 296.585,147.084 254.085,104.084 211,61.5C 210.329,62.2524 209.496,62.5858 208.5,62.5C 213.829,57.8308 219.829,54.1641 226.5,51.5 Z"/></g>
<g><path style="opacity:0.994" fill="#d747bc" d="M 338.5,190.5 C 334.074,193.594 329.407,196.261 324.5,198.5C 307.833,182.167 291.167,165.833 274.5,149.5C 273.87,138.206 267.87,132.873 256.5,133.5C 256.611,132.883 256.944,132.383 257.5,132C 237.632,112.299 217.965,92.4653 198.5,72.5C 200.833,68.1667 204.167,64.8333 208.5,62.5C 209.496,62.5858 210.329,62.2524 211,61.5C 254.085,104.084 296.585,147.084 338.5,190.5 Z"/></g>
<g><path style="opacity:0.996" fill="#d143bb" d="M 198.5,72.5 C 217.965,92.4653 237.632,112.299 257.5,132C 256.944,132.383 256.611,132.883 256.5,133.5C 250.961,135.043 246.961,138.376 244.5,143.5C 226.535,125.035 208.368,106.701 190,88.5C 189.536,87.9056 189.369,87.2389 189.5,86.5C 191.506,81.1454 194.506,76.4787 198.5,72.5 Z"/></g>
<g><path style="opacity:0.993" fill="#cb40ba" d="M 189.5,86.5 C 189.369,87.2389 189.536,87.9056 190,88.5C 208.368,106.701 226.535,125.035 244.5,143.5C 243.628,149.789 243.295,156.122 243.5,162.5C 223.5,142.833 203.5,123.167 183.5,103.5C 184.334,97.3272 186.334,91.6605 189.5,86.5 Z"/></g>
<g><path style="opacity:0.991" fill="#c53bb9" d="M 183.5,103.5 C 203.5,123.167 223.5,142.833 243.5,162.5C 243.828,167.875 243.495,173.208 242.5,178.5C 238.878,179.708 235.211,180.708 231.5,181.5C 214.833,165.5 198.5,149.167 182.5,132.5C 180.909,122.751 181.243,113.084 183.5,103.5 Z"/></g>
<g><path style="opacity:0.994" fill="#b833b6" d="M 141.5,115.5 C 165.465,139.965 189.632,164.299 214,188.5C 214.464,189.094 214.631,189.761 214.5,190.5C 210.689,193.25 207.022,196.25 203.5,199.5C 175.417,172.919 147.751,145.752 120.5,118C 121.056,117.617 121.389,117.117 121.5,116.5C 128.123,115.62 134.789,115.287 141.5,115.5 Z"/></g>
<g><path style="opacity:0.992" fill="#be37b7" d="M 141.5,115.5 C 156.962,117.071 170.628,122.738 182.5,132.5C 198.5,149.167 214.833,165.5 231.5,181.5C 225.741,184.214 220.075,187.214 214.5,190.5C 214.631,189.761 214.464,189.094 214,188.5C 189.632,164.299 165.465,139.965 141.5,115.5 Z"/></g>
<g><path style="opacity:0.99" fill="#f75cc3" d="M 363.5,116.5 C 400.171,112.754 426.004,127.754 441,161.5C 445.189,173.026 446.356,184.692 444.5,196.5C 419.086,169.584 393.086,143.084 366.5,117C 365.552,116.517 364.552,116.351 363.5,116.5 Z"/></g>
<g><path style="opacity:0.995" fill="#ef57c1" d="M 363.5,116.5 C 364.552,116.351 365.552,116.517 366.5,117C 393.086,143.084 419.086,169.584 444.5,196.5C 444.26,202.456 442.927,208.123 440.5,213.5C 409.084,183.585 378.084,153.085 347.5,122C 346.906,121.536 346.239,121.369 345.5,121.5C 350.972,118.296 356.972,116.629 363.5,116.5 Z"/></g>
<g><path style="opacity:0.986" fill="#b12fb5" d="M 121.5,116.5 C 121.389,117.117 121.056,117.617 120.5,118C 147.751,145.752 175.417,172.919 203.5,199.5C 202.521,201.145 201.188,202.479 199.5,203.5C 190.039,198.534 180.706,193.367 171.5,188C 167.779,187.322 164.112,187.489 160.5,188.5C 160.611,187.883 160.944,187.383 161.5,187C 140.965,166.632 120.632,146.132 100.5,125.5C 106.825,121.161 113.825,118.161 121.5,116.5 Z"/></g>
<g><path style="opacity:0.996" fill="#ea53c0" d="M 345.5,121.5 C 346.239,121.369 346.906,121.536 347.5,122C 378.084,153.085 409.084,183.585 440.5,213.5C 438.509,219.489 435.509,224.823 431.5,229.5C 397.833,196.5 364.5,163.167 331.5,129.5C 335.416,125.598 340.083,122.931 345.5,121.5 Z"/></g>
<g><path style="opacity:0.993" fill="#ab2bb4" d="M 100.5,125.5 C 120.632,146.132 140.965,166.632 161.5,187C 160.944,187.383 160.611,187.883 160.5,188.5C 156.426,191.245 153.426,194.912 151.5,199.5C 150.761,199.631 150.094,199.464 149.5,199C 128.632,177.965 107.632,157.132 86.5,136.5C 90.0693,131.388 94.736,127.722 100.5,125.5 Z"/></g>
<g><path style="opacity:0.988" fill="#a527b3" d="M 86.5,136.5 C 107.632,157.132 128.632,177.965 149.5,199C 150.094,199.464 150.761,199.631 151.5,199.5C 150.853,205.731 152.853,210.898 157.5,215C 166.665,220.081 175.665,225.415 184.5,231C 181.623,238.219 179.956,245.719 179.5,253.5C 144.473,219.14 109.806,184.473 75.5,149.5C 78.4645,144.57 82.1312,140.237 86.5,136.5 Z"/></g>
<g><path style="opacity:0.993" fill="#9f23b1" d="M 75.5,149.5 C 109.806,184.473 144.473,219.14 179.5,253.5C 179.62,262.798 181.287,271.798 184.5,280.5C 184.376,281.107 184.043,281.44 183.5,281.5C 145.5,242.833 107.167,204.5 68.5,166.5C 70.0008,160.497 72.3342,154.831 75.5,149.5 Z"/></g>
<g><path style="opacity:0.963" fill="#d244bb" d="M 274.5,149.5 C 291.167,165.833 307.833,182.167 324.5,198.5C 322.519,200.303 320.352,201.97 318,203.5C 306.517,190.531 292.35,181.864 275.5,177.5C 274.502,168.19 274.168,158.857 274.5,149.5 Z"/></g>
<g><path style="opacity:0.996" fill="#981fb0" d="M 68.5,166.5 C 107.167,204.5 145.5,242.833 183.5,281.5C 177.87,285.654 171.87,289.321 165.5,292.5C 132.883,258.216 99.5499,224.549 65.5,191.5C 65.0375,182.944 66.0375,174.611 68.5,166.5 Z"/></g>
<g><path style="opacity:0.992" fill="#921baf" d="M 65.5,191.5 C 99.5499,224.549 132.883,258.216 165.5,292.5C 160.707,294.551 156.707,297.551 153.5,301.5C 138.586,288.088 124.086,274.088 110,259.5C 109.536,258.906 109.369,258.239 109.5,257.5C 110.398,256.842 111.398,256.176 112.5,255.5C 84.1633,243.501 68.4966,222.168 65.5,191.5 Z"/></g>
<g><path style="opacity:0.961" fill="#c33ab9" d="M 251.5,206.5 C 277.02,206.158 294.187,217.824 303,241.5C 304.329,248.092 304.829,254.759 304.5,261.5C 287.229,243.728 269.729,226.062 252,208.5C 251.536,207.906 251.369,207.239 251.5,206.5 Z"/></g>
<g><path style="opacity:0.991" fill="#bd37b7" d="M 251.5,206.5 C 251.369,207.239 251.536,207.906 252,208.5C 269.729,226.062 287.229,243.728 304.5,261.5C 303.783,266.373 302.449,271.04 300.5,275.5C 279.194,253.86 257.861,232.194 236.5,210.5C 241.414,208.749 246.414,207.416 251.5,206.5 Z"/></g>
<g><path style="opacity:0.993" fill="#b833b6" d="M 236.5,210.5 C 257.861,232.194 279.194,253.86 300.5,275.5C 298.637,280.684 295.637,285.017 291.5,288.5C 268.116,266.117 245.449,243.117 223.5,219.5C 227.273,215.773 231.606,212.773 236.5,210.5 Z"/></g>
<g><path style="opacity:0.99" fill="#d747bc" d="M 361.5,211.5 C 375.167,225.5 388.833,239.5 402.5,253.5C 401.099,253.971 399.766,254.638 398.5,255.5C 422.226,263.394 437.726,279.394 445,303.5C 446.487,309.754 447.32,316.088 447.5,322.5C 414.194,288.86 380.861,255.194 347.5,221.5C 352.422,218.587 357.088,215.254 361.5,211.5 Z"/></g>
<g><path style="opacity:0.997" fill="#d143bb" d="M 347.5,221.5 C 380.861,255.194 414.194,288.86 447.5,322.5C 447.561,329.454 446.561,336.121 444.5,342.5C 406.45,305.451 369.117,267.784 332.5,229.5C 337.368,226.566 342.368,223.9 347.5,221.5 Z"/></g>
<g><path style="opacity:0.997" fill="#b12fb5" d="M 223.5,219.5 C 245.449,243.117 268.116,266.117 291.5,288.5C 287.272,293.721 281.938,297.387 275.5,299.5C 274.761,299.631 274.094,299.464 273.5,299C 252.965,278.298 232.299,257.798 211.5,237.5C 213.547,230.134 217.547,224.134 223.5,219.5 Z"/></g>
<g><path style="opacity:0.995" fill="#cb40ba" d="M 332.5,229.5 C 369.117,267.784 406.45,305.451 444.5,342.5C 443.296,347.895 441.296,352.895 438.5,357.5C 404.701,324.201 371.035,290.701 337.5,257C 336.906,256.536 336.239,256.369 335.5,256.5C 335.037,247.908 333.704,239.408 331.5,231C 331.57,230.235 331.903,229.735 332.5,229.5 Z"/></g>
<g><path style="opacity:0.991" fill="#aa2ab4" d="M 211.5,237.5 C 232.299,257.798 252.965,278.298 273.5,299C 274.094,299.464 274.761,299.631 275.5,299.5C 244.991,309.666 223.157,299.999 210,270.5C 206.563,259.203 207.063,248.203 211.5,237.5 Z"/></g>
<g><path style="opacity:0.996" fill="#8c17ae" d="M 109.5,257.5 C 109.369,258.239 109.536,258.906 110,259.5C 124.086,274.088 138.586,288.088 153.5,301.5C 149.211,314.249 153.711,321.915 167,324.5C 169.497,323.751 171.997,323.084 174.5,322.5C 174.369,323.239 174.536,323.906 175,324.5C 216.701,366.035 258.201,407.701 299.5,449.5C 295.394,453.254 290.727,456.254 285.5,458.5C 221.194,394.86 157.194,330.86 93.5,266.5C 98.1773,262.491 103.511,259.491 109.5,257.5 Z"/></g>
<g><path style="opacity:0.984" fill="#c53cb9" d="M 335.5,256.5 C 336.239,256.369 336.906,256.536 337.5,257C 371.035,290.701 404.701,324.201 438.5,357.5C 434.949,364.383 430.282,370.383 424.5,375.5C 404.167,354.833 383.833,334.167 363.5,313.5C 364.889,306.445 362.889,300.612 357.5,296C 349.081,291.04 340.581,286.207 332,281.5C 333.863,273.333 335.029,264.999 335.5,256.5 Z"/></g>
<g><path style="opacity:0.998" fill="#8613ac" d="M 93.5,266.5 C 157.194,330.86 221.194,394.86 285.5,458.5C 279.154,461.392 272.488,463.058 265.5,463.5C 238.833,436.167 211.833,409.167 184.5,382.5C 184.657,381.127 184.49,379.793 184,378.5C 183.329,379.252 182.496,379.586 181.5,379.5C 148.167,345.833 114.833,312.167 81.5,278.5C 84.5,273.5 88.5,269.5 93.5,266.5 Z"/></g>
<g><path style="opacity:0.995" fill="#800fab" d="M 81.5,278.5 C 114.833,312.167 148.167,345.833 181.5,379.5C 176.433,384.37 170.433,387.704 163.5,389.5C 132.473,358.14 101.473,326.806 70.5,295.5C 73.4329,289.286 77.0996,283.619 81.5,278.5 Z"/></g>
<g><path style="opacity:0.994" fill="#790baa" d="M 70.5,295.5 C 101.473,326.806 132.473,358.14 163.5,389.5C 157.645,392.544 151.311,394.211 144.5,394.5C 118.868,368.368 93.0349,342.368 67,316.5C 66.6174,317.056 66.1174,317.389 65.5,317.5C 66.2228,309.943 67.8895,302.609 70.5,295.5 Z"/></g>
<g><path style="opacity:0.989" fill="#b833b6" d="M 350.5,323.5 C 350.369,324.239 350.536,324.906 351,325.5C 371.035,345.368 390.868,365.368 410.5,385.5C 405.704,388.894 400.371,391.228 394.5,392.5C 367.784,364.783 340.45,337.783 312.5,311.5C 313.52,309.648 315.02,308.315 317,307.5C 325.565,312.2 334.065,317.033 342.5,322C 345.063,323.079 347.729,323.579 350.5,323.5 Z"/></g>
<g><path style="opacity:0.989" fill="#981eb0" d="M 243.5,368.5 C 225.167,350.5 206.833,332.5 188.5,314.5C 191.849,312.066 195.349,309.733 199,307.5C 210.391,320.544 224.558,329.044 241.5,333C 242.197,344.803 242.863,356.636 243.5,368.5 Z"/></g>
<g><path style="opacity:0.996" fill="#931baf" d="M 188.5,314.5 C 206.833,332.5 225.167,350.5 243.5,368.5C 248.398,376.441 255.398,379.108 264.5,376.5C 282.5,393.833 300.167,411.5 317.5,429.5C 313.265,437.736 307.265,444.402 299.5,449.5C 258.201,407.701 216.701,366.035 175,324.5C 174.536,323.906 174.369,323.239 174.5,322.5C 178.833,319.331 183.5,316.664 188.5,314.5 Z"/></g>
<g><path style="opacity:0.993" fill="#b12fb5" d="M 312.5,311.5 C 340.45,337.783 367.784,364.783 394.5,392.5C 385.579,394.693 376.579,395.36 367.5,394.5C 345.253,370.751 322.419,347.418 299,324.5C 298.536,323.906 298.369,323.239 298.5,322.5C 303.142,318.864 307.809,315.197 312.5,311.5 Z"/></g>
<g><path style="opacity:0.993" fill="#be37b7" d="M 363.5,313.5 C 383.833,334.167 404.167,354.833 424.5,375.5C 420.674,379.99 416.007,383.323 410.5,385.5C 390.868,365.368 371.035,345.368 351,325.5C 350.536,324.906 350.369,324.239 350.5,323.5C 356.585,322.307 360.918,318.973 363.5,313.5 Z"/></g>
<g><path style="opacity:0.985" fill="#ab2bb4" d="M 298.5,322.5 C 298.369,323.239 298.536,323.906 299,324.5C 322.419,347.418 345.253,370.751 367.5,394.5C 352.961,392.725 339.961,387.392 328.5,378.5C 313.535,363.035 298.368,347.701 283,332.5C 282.536,331.906 282.369,331.239 282.5,330.5C 287.882,328.033 293.216,325.366 298.5,322.5 Z"/></g>
<g><path style="opacity:0.984" fill="#a527b3" d="M 282.5,330.5 C 282.369,331.239 282.536,331.906 283,332.5C 298.368,347.701 313.535,363.035 328.5,378.5C 328.797,385.92 328.464,393.254 327.5,400.5C 308.857,383.524 290.857,365.858 273.5,347.5C 273.173,342.456 273.506,337.456 274.5,332.5C 277.096,331.518 279.762,330.851 282.5,330.5 Z"/></g>
<g><path style="opacity:0.949" fill="#7105a8" d="M 144.5,394.5 C 109.231,395.794 84.3977,380.461 70,348.5C 66.5473,338.45 65.0473,328.117 65.5,317.5C 66.1174,317.389 66.6174,317.056 67,316.5C 93.0349,342.368 118.868,368.368 144.5,394.5 Z"/></g>
<g><path style="opacity:0.991" fill="#9c21b1" d="M 273.5,347.5 C 290.857,365.858 308.857,383.524 327.5,400.5C 326.924,411.232 323.59,420.899 317.5,429.5C 300.167,411.5 282.5,393.833 264.5,376.5C 268.614,373.879 271.447,370.212 273,365.5C 273.499,359.509 273.666,353.509 273.5,347.5 Z"/></g>
<g><path style="opacity:0.99" fill="#7f0eab" d="M 184.5,382.5 C 211.833,409.167 238.833,436.167 265.5,463.5C 229.957,466.311 204.457,451.645 189,419.5C 184.73,407.459 183.23,395.126 184.5,382.5 Z"/></g>
</svg>
