<?xml version="1.0" encoding="UTF-8"?>
<!DOCTYPE svg PUBLIC "-//W3C//DTD SVG 1.1//EN" "http://www.w3.org/Graphics/SVG/1.1/DTD/svg11.dtd">
<svg xmlns="http://www.w3.org/2000/svg" version="1.1" width="512px" height="506px" style="shape-rendering:geometricPrecision; text-rendering:geometricPrecision; image-rendering:optimizeQuality; fill-rule:evenodd; clip-rule:evenodd" xmlns:xlink="http://www.w3.org/1999/xlink">
<g><path style="opacity:0.986" fill="#dd00ff" d="M 358.5,68.5 C 289.5,69.8333 220.5,69.8333 151.5,68.5C 201.72,40.7639 254.72,33.9305 310.5,48C 327.653,52.4173 343.653,59.2507 358.5,68.5 Z"/></g>
<g><path style="opacity:0.984" fill="#d700ff" d="M 151.5,68.5 C 220.5,69.8333 289.5,69.8333 358.5,68.5C 371.608,75.2814 383.608,83.6148 394.5,93.5C 368.833,94.1667 343.167,94.8333 317.5,95.5C 275.848,79.5319 234.181,79.5319 192.5,95.5C 167.167,94.8333 141.833,94.1667 116.5,93.5C 127.248,83.952 138.915,75.6186 151.5,68.5 Z"/></g>
<g><path style="opacity:0.979" fill="#d100ff" d="M 116.5,93.5 C 141.833,94.1667 167.167,94.8333 192.5,95.5C 177.072,102.38 162.738,111.046 149.5,121.5C 130.5,120.833 111.5,120.167 92.5,119.5C 99.4024,109.927 107.402,101.26 116.5,93.5 Z"/></g>
<g><path style="opacity:0.978" fill="#d100ff" d="M 394.5,93.5 C 403.598,101.26 411.598,109.927 418.5,119.5C 399.341,120.497 380.007,120.83 360.5,120.5C 347.282,110.386 332.948,102.053 317.5,95.5C 343.167,94.8333 368.833,94.1667 394.5,93.5 Z"/></g>
<g><path style="opacity:0.977" fill="#cb00ff" d="M 92.5,119.5 C 111.5,120.167 130.5,120.833 149.5,121.5C 139.467,130.533 130.133,140.199 121.5,150.5C 104.833,150.5 88.1667,150.5 71.5,150.5C 76.7706,138.947 83.7706,128.614 92.5,119.5 Z"/></g>
<g><path style="opacity:0.98" fill="#cb00ff" d="M 418.5,119.5 C 426.965,128.413 433.965,138.413 439.5,149.5C 422.911,150.485 406.244,150.818 389.5,150.5C 380.533,139.866 370.866,129.866 360.5,120.5C 380.007,120.83 399.341,120.497 418.5,119.5 Z"/></g>
<g><path style="opacity:0.979" fill="#c300ff" d="M 250.5,145.5 C 269.986,144.82 278.486,154.153 276,173.5C 268.351,188.204 257.184,191.704 242.5,184C 234.046,175.866 232.212,166.366 237,155.5C 240.416,150.558 244.916,147.224 250.5,145.5 Z"/></g>
<g><path style="opacity:0.98" fill="#c400ff" d="M 439.5,149.5 C 444.047,157.927 448.047,166.594 451.5,175.5C 435.833,175.5 420.167,175.5 404.5,175.5C 399.871,166.887 394.871,158.554 389.5,150.5C 406.244,150.818 422.911,150.485 439.5,149.5 Z"/></g>
<g><path style="opacity:0.982" fill="#c400ff" d="M 71.5,150.5 C 88.1667,150.5 104.833,150.5 121.5,150.5C 115.762,158.907 110.429,167.574 105.5,176.5C 90.5,175.833 75.5,175.167 60.5,174.5C 63.1029,165.964 66.7695,157.964 71.5,150.5 Z"/></g>
<g><path style="opacity:0.981" fill="#be00ff" d="M 60.5,174.5 C 75.5,175.167 90.5,175.833 105.5,176.5C 102.146,184.909 98.8129,193.242 95.5,201.5C 80.8333,201.5 66.1667,201.5 51.5,201.5C 53.5293,192.079 56.5293,183.079 60.5,174.5 Z"/></g>
<g><path style="opacity:0.981" fill="#be00ff" d="M 404.5,175.5 C 420.167,175.5 435.833,175.5 451.5,175.5C 454.767,183.969 457.434,192.636 459.5,201.5C 444.833,201.5 430.167,201.5 415.5,201.5C 412.241,192.742 408.574,184.075 404.5,175.5 Z"/></g>
<g><path style="opacity:0.982" fill="#b800ff" d="M 51.5,201.5 C 66.1667,201.5 80.8333,201.5 95.5,201.5C 93.4506,209.747 91.784,218.08 90.5,226.5C 76.1667,226.5 61.8333,226.5 47.5,226.5C 48.0898,218.036 49.4232,209.703 51.5,201.5 Z"/></g>
<g><path style="opacity:0.981" fill="#b800ff" d="M 415.5,201.5 C 430.167,201.5 444.833,201.5 459.5,201.5C 461.577,209.703 462.91,218.036 463.5,226.5C 449.167,226.5 434.833,226.5 420.5,226.5C 419.216,218.08 417.549,209.747 415.5,201.5 Z"/></g>
<g><path style="opacity:0.96" fill="#b700ff" d="M 276.5,226.5 C 262.421,226.815 248.421,226.482 234.5,225.5C 238.672,211.571 248.006,206.071 262.5,209C 270.723,212.05 275.389,217.883 276.5,226.5 Z"/></g>
<g><path style="opacity:0.995" fill="#b200ff" d="M 234.5,225.5 C 248.421,226.482 262.421,226.815 276.5,226.5C 276.5,236.5 276.5,246.5 276.5,256.5C 262.5,256.5 248.5,256.5 234.5,256.5C 234.5,246.167 234.5,235.833 234.5,225.5 Z"/></g>
<g><path style="opacity:0.982" fill="#b200ff" d="M 47.5,226.5 C 61.8333,226.5 76.1667,226.5 90.5,226.5C 89.0872,236.437 88.4206,246.437 88.5,256.5C 74.5,256.5 60.5,256.5 46.5,256.5C 46.7373,255.209 46.404,254.209 45.5,253.5C 45.7961,244.42 46.4627,235.42 47.5,226.5 Z"/></g>
<g><path style="opacity:0.983" fill="#b200ff" d="M 420.5,226.5 C 434.833,226.5 449.167,226.5 463.5,226.5C 465.001,236.613 465.335,246.613 464.5,256.5C 450.5,256.5 436.5,256.5 422.5,256.5C 422.579,246.437 421.913,236.437 420.5,226.5 Z"/></g>
<g><path style="opacity:0.982" fill="#ab00ff" d="M 45.5,253.5 C 46.404,254.209 46.7373,255.209 46.5,256.5C 60.5,256.5 74.5,256.5 88.5,256.5C 89.3681,265.181 90.3681,273.847 91.5,282.5C 77.1667,282.5 62.8333,282.5 48.5,282.5C 47.1032,272.889 46.1032,263.222 45.5,253.5 Z"/></g>
<g><path style="opacity:0.996" fill="#ab00ff" d="M 234.5,256.5 C 248.5,256.5 262.5,256.5 276.5,256.5C 276.5,265.167 276.5,273.833 276.5,282.5C 262.5,282.5 248.5,282.5 234.5,282.5C 234.5,273.833 234.5,265.167 234.5,256.5 Z"/></g>
<g><path style="opacity:0.983" fill="#ab00ff" d="M 422.5,256.5 C 436.5,256.5 450.5,256.5 464.5,256.5C 464.744,265.261 464.078,273.927 462.5,282.5C 448.167,282.5 433.833,282.5 419.5,282.5C 420.632,273.847 421.632,265.181 422.5,256.5 Z"/></g>
<g><path style="opacity:0.984" fill="#a500ff" d="M 48.5,282.5 C 62.8333,282.5 77.1667,282.5 91.5,282.5C 93.6226,290.871 95.9559,299.204 98.5,307.5C 83.5,307.5 68.5,307.5 53.5,307.5C 51.3589,299.268 49.6922,290.934 48.5,282.5 Z"/></g>
<g><path style="opacity:0.996" fill="#a500ff" d="M 234.5,282.5 C 248.5,282.5 262.5,282.5 276.5,282.5C 276.5,290.833 276.5,299.167 276.5,307.5C 262.5,307.5 248.5,307.5 234.5,307.5C 234.5,299.167 234.5,290.833 234.5,282.5 Z"/></g>
<g><path style="opacity:0.983" fill="#a500ff" d="M 419.5,282.5 C 433.833,282.5 448.167,282.5 462.5,282.5C 461.416,291.495 459.416,300.162 456.5,308.5C 442.01,307.504 427.343,307.171 412.5,307.5C 414.993,299.195 417.326,290.862 419.5,282.5 Z"/></g>
<g><path style="opacity:0.983" fill="#9f00ff" d="M 53.5,307.5 C 68.5,307.5 83.5,307.5 98.5,307.5C 102.297,316.208 106.297,324.875 110.5,333.5C 94.7556,333.183 79.089,333.516 63.5,334.5C 59.3768,325.797 56.0434,316.797 53.5,307.5 Z"/></g>
<g><path style="opacity:0.996" fill="#9e00ff" d="M 234.5,307.5 C 248.5,307.5 262.5,307.5 276.5,307.5C 276.938,319.576 276.438,331.576 275,343.5C 266.991,355.461 256.491,358.294 243.5,352C 240.628,349.463 238.128,346.63 236,343.5C 234.562,331.576 234.062,319.576 234.5,307.5 Z"/></g>
<g><path style="opacity:0.983" fill="#9f00ff" d="M 412.5,307.5 C 427.343,307.171 442.01,307.504 456.5,308.5C 454.864,317.413 451.864,325.746 447.5,333.5C 431.833,333.5 416.167,333.5 400.5,333.5C 404.703,324.875 408.703,316.208 412.5,307.5 Z"/></g>
<g><path style="opacity:0.982" fill="#9800ff" d="M 110.5,333.5 C 117.333,343.817 124.666,353.817 132.5,363.5C 114.757,363.181 97.0899,363.514 79.5,364.5C 73.1337,355.103 67.8004,345.103 63.5,334.5C 79.089,333.516 94.7556,333.183 110.5,333.5 Z"/></g>
<g><path style="opacity:0.983" fill="#9800ff" d="M 400.5,333.5 C 416.167,333.5 431.833,333.5 447.5,333.5C 443.471,344.56 438.138,354.893 431.5,364.5C 414.069,363.846 396.735,363.18 379.5,362.5C 386.919,353.089 393.919,343.423 400.5,333.5 Z"/></g>
<g><path style="opacity:0.978" fill="#9200ff" d="M 379.5,362.5 C 396.735,363.18 414.069,363.846 431.5,364.5C 425.898,373.1 419.564,381.1 412.5,388.5C 391.66,388.831 370.993,388.497 350.5,387.5C 360.436,379.57 370.103,371.236 379.5,362.5 Z"/></g>
<g><path style="opacity:0.981" fill="#9200ff" d="M 132.5,363.5 C 141.897,372.236 151.564,380.57 161.5,388.5C 140.5,388.5 119.5,388.5 98.5,388.5C 91.4357,381.1 85.1024,373.1 79.5,364.5C 97.0899,363.514 114.757,363.181 132.5,363.5 Z"/></g>
<g><path style="opacity:0.98" fill="#8c00ff" d="M 350.5,387.5 C 370.993,388.497 391.66,388.831 412.5,388.5C 404.128,399.206 394.461,408.539 383.5,416.5C 352.68,414.835 321.68,413.835 290.5,413.5C 312.189,408.654 332.189,399.987 350.5,387.5 Z"/></g>
<g><path style="opacity:0.978" fill="#8c00ff" d="M 98.5,388.5 C 119.5,388.5 140.5,388.5 161.5,388.5C 180.646,400.88 201.313,409.546 223.5,414.5C 190.996,414.168 158.662,414.502 126.5,415.5C 115.872,407.873 106.539,398.873 98.5,388.5 Z"/></g>
<g><path style="opacity:0.99" fill="#8600ff" d="M 290.5,413.5 C 321.68,413.835 352.68,414.835 383.5,416.5C 370.923,426.291 357.257,434.291 342.5,440.5C 284.5,440.5 226.5,440.5 168.5,440.5C 153.202,434.191 139.202,425.858 126.5,415.5C 158.662,414.502 190.996,414.168 223.5,414.5C 234.146,415.677 244.812,416.677 255.5,417.5C 267.258,416.872 278.925,415.539 290.5,413.5 Z"/></g>
<g><path style="opacity:0.966" fill="#8100ff" d="M 168.5,440.5 C 226.5,440.5 284.5,440.5 342.5,440.5C 309.319,456.099 274.319,462.266 237.5,459C 213.168,457.309 190.168,451.142 168.5,440.5 Z"/></g>
</svg>
